<svg
    xmlns="http://www.w3.org/2000/svg"
    viewBox="0 0 24 30"
    x="0px" y="0px"
>
    <path d="M18.4054,9H16l.58-2.32a1.87,1.87,0,0,0-1.22284-2.2276L15.355,4.45166a1.86911,1.86911,0,0,0-2.14728.73676L12,7,9,10H8.7226A1.99139,1.99139,0,0,0,7,9H6a2,2,0,0,0-2,2v7a2,2,0,0,0,2,2H7a1.99385,1.99385,0,0,0,1.62671-.84332L12,20h5.49628a3,3,0,0,0,2.9516-2.46338l.90911-5A3,3,0,0,0,18.4054,9ZM7,19H6a1.00115,1.00115,0,0,1-1-1V11a1.00115,1.00115,0,0,1,1-1H7a1.00115,1.00115,0,0,1,1,1v7A1.00115,1.00115,0,0,1,7,19Zm13.37311-6.64227-.90906,5A1.99911,1.99911,0,0,1,17.49628,19H12.12311L9,18.21924V11h.41425l.29284-.29291,3-3,.07007-.07.05487-.08239L14.03979,5.7431a.87135.87135,0,0,1,1.57007.69434l-.58,2.32L14.71924,10H18.4054a1.99993,1.99993,0,0,1,1.96771,2.35773Z"/>
</svg>